HIERARCHY
ROOT hip
{
	OFFSET 0.000000 0.000000 0.000000
	CHANNELS 6 Xposition Yposition Zposition Xrotation Zrotation Yrotation 
	JOINT abdomen
	{
		OFFSET 0.000000 3.422050 0.000000
		CHANNELS 3 Xrotation Zrotation Yrotation 
		JOINT chest
		{
			OFFSET 0.000000 8.486693 -0.684411
			CHANNELS 3 Xrotation Zrotation Yrotation 
			JOINT neck
			{
				OFFSET 0.000000 10.266162 -0.273764
				CHANNELS 3 Xrotation Zrotation Yrotation 
				JOINT head
				{
					OFFSET 0.000000 3.148285 0.000000
					CHANNELS 3 Xrotation Zrotation Yrotation 
					End Site
					{
						OFFSET 0.000000 3.148289 0.000000
					}
				}
			}
			JOINT lCollar
			{
				OFFSET 3.422053 6.707223 -0.821293
				CHANNELS 3 Yrotation Zrotation Xrotation 
				JOINT lShldr
				{
					OFFSET 3.285171 0.000000 0.000000
					CHANNELS 3 Zrotation Yrotation Xrotation 
					JOINT lForeArm
					{
						OFFSET 10.129278 0.000000 0.000000
						CHANNELS 3 Yrotation Zrotation Xrotation 
						JOINT lHand
						{
							OFFSET 8.486692 0.000000 0.000000
							CHANNELS 3 Zrotation Yrotation Xrotation 
							End Site
							{
								OFFSET 4.106464 0.000000 0.000000
							}
						}
					}
				}
			}
			JOINT rCollar
			{
				OFFSET -3.558935 6.707223 -0.821293
				CHANNELS 3 Yrotation Zrotation Xrotation 
				JOINT rShldr
				{
					OFFSET -3.148289 0.000000 0.000000
					CHANNELS 3 Zrotation Yrotation Xrotation 
					JOINT rForeArm
					{
						OFFSET -10.266159 0.000000 0.000000
						CHANNELS 3 Yrotation Zrotation Xrotation 
						JOINT rHand
						{
							OFFSET -8.349810 0.000000 0.000000
							CHANNELS 3 Zrotation Yrotation Xrotation 
							End Site
							{
								OFFSET -4.106464 0.000000 0.000000
							}
						}
					}
				}
			}
		}
	}
	JOINT lThigh
	{
		OFFSET 5.338403 -1.642589 1.368821
		CHANNELS 3 Xrotation Zrotation Yrotation 
		JOINT lShin
		{
			OFFSET -2.053232 -20.121670 0.000000
			CHANNELS 3 Xrotation Zrotation Yrotation 
			JOINT lFoot
			{
				OFFSET 0.000000 -19.300380 -1.231939
				CHANNELS 3 Xrotation Yrotation Zrotation 
				End Site
				{
					OFFSET 0.000000 -2.463878 4.653993
				}
			}
		}
	}
	JOINT rThigh
	{
		OFFSET -5.338403 -1.642589 1.368821
		CHANNELS 3 Xrotation Zrotation Yrotation 
		JOINT rShin
		{
			OFFSET 2.053232 -20.121670 0.000000
			CHANNELS 3 Xrotation Zrotation Yrotation 
			JOINT rFoot
			{
				OFFSET 0.000000 -19.300380 -1.231939
				CHANNELS 3 Xrotation Yrotation Zrotation 
				End Site
				{
					OFFSET 0.000000 -2.463878 4.653993
				}
			}
		}
	}
}
MOTION
Frames: 18
Frame Time: 0.055410
0.000000 19.188410 -23.376894 -80.662476 0.121171 -179.843719 18.314026 -0.084854 -0.072302 5.632442 5.725118 -0.962567 25.680765 11.139596 0.067701 7.825183 0.000000 0.000000 7.821038 -6.604158 -1.583846 4.830959 -53.834896 -4.276876 -32.452065 17.444202 -5.151048 68.831604 2.304430 -1.828594 -1.968750 2.247474 -9.383430 -4.310976 56.620548 -3.683610 40.666798 -20.042458 -2.440082 -64.493698 -1.762328 4.680707 -112.610191 27.501911 4.061633 118.731628 4.802994 -1.281088 55.680870 1.726815 5.009548 -112.617775 -27.518360 -4.072581 118.732620 -4.819990 1.267983 55.680714 -1.731540 -5.011014 
0.000000 18.916471 -23.032066 -81.999374 0.139169 -179.826538 15.621789 -0.085020 -0.072199 4.769064 4.854955 -0.948594 26.339973 11.069050 0.033362 7.912163 0.000000 0.000000 6.624064 -6.517595 -1.381267 4.830959 -53.834896 -4.276876 -32.452065 17.444202 -5.151048 67.570457 1.957492 -1.588687 -1.572474 2.772003 -8.049917 -4.391484 56.222115 -3.774153 39.474640 -19.694054 -2.854522 -63.842522 -1.532887 4.002697 -115.438118 27.308626 3.417130 120.027122 4.877274 -1.169969 55.680870 1.726815 5.009548 -115.445236 -27.323626 -3.425844 120.028038 -4.891530 1.157886 55.680714 -1.731540 -5.011014 
0.000000 18.644533 -22.687237 -83.335747 0.157556 -179.809769 12.934011 -0.085180 -0.072088 3.906785 3.985400 -0.921507 26.997280 10.999080 -0.001699 7.999141 0.000000 0.000000 5.427411 -6.435284 -1.177018 4.830959 -53.834896 -4.276876 -32.452065 17.444202 -5.151048 66.308624 1.616057 -1.341348 -1.188534 3.305318 -6.720102 -4.470043 55.823650 -3.862767 38.288151 -19.337744 -3.260159 -63.194324 -1.295825 3.327549 -118.253838 27.087751 2.786285 121.322411 4.949003 -1.057224 55.680870 1.726815 5.009548 -118.260399 -27.101212 -2.792860 121.323204 -4.960543 1.046224 55.680714 -1.731540 -5.011014 
0.000000 18.372595 -22.342407 -84.671219 0.176316 -179.793442 10.253618 -0.085335 -0.071970 3.045399 3.116848 -0.881371 25.558378 10.950692 -0.026578 7.294331 0.000000 0.000000 4.231359 -6.357274 -0.971238 4.830959 -53.834896 -4.276876 -32.452065 17.444202 -5.151048 65.046402 1.280378 -1.086761 -0.817190 3.846908 -5.394254 -4.546714 55.425121 -3.949516 37.107563 -18.973804 -3.656818 -62.549229 -1.051245 2.655416 -121.053589 26.840288 2.171235 122.617157 5.018132 -0.942941 55.680870 1.726815 5.009548 -121.059570 -26.852139 -2.175774 122.617828 -5.026984 0.933087 55.680714 -1.731540 -5.011014 
0.000000 18.100658 -21.997580 -86.005432 0.195434 -179.777603 7.583502 -0.085484 -0.071846 2.184706 2.249691 -0.828249 24.111343 10.901420 -0.050341 6.588004 0.000000 0.000000 3.036184 -6.283607 -0.764064 4.830959 -53.834896 -4.276876 -32.452065 17.444202 -5.151048 63.784016 0.950702 -0.825122 -0.458681 4.396255 -4.072629 -4.621564 55.026573 -4.034463 35.933105 -18.602518 -4.044338 -61.907421 -0.799257 1.986452 -123.833832 26.567421 1.573953 123.911026 5.084614 -0.827212 55.680870 1.726815 5.009548 -123.839157 -26.577587 -1.576568 123.911545 -5.090805 0.818562 55.680714 -1.731540 -5.011014 
0.000000 17.828720 -21.652750 -87.338020 0.214891 -179.762207 4.926482 -0.085626 -0.071715 1.324508 1.384319 -0.762203 22.656567 10.851295 -0.072947 5.880209 0.000000 0.000000 1.842170 -6.214322 -0.555638 4.830959 -53.834896 -4.276876 -32.452065 17.444202 -5.151048 62.521805 0.627264 -0.556637 -0.113227 4.952832 -2.755468 -4.694649 54.628002 -4.117668 34.764973 -18.224167 -4.422565 -61.269016 -0.539973 1.320800 -126.591194 26.270464 0.996232 125.203667 5.148401 -0.710127 55.680870 1.726815 5.009548 -126.595795 -26.278873 -0.997029 125.204033 -5.151966 0.702742 55.680714 -1.731540 -5.011014 
0.000000 17.556782 -21.307922 -88.668633 0.234672 -179.747284 2.285296 -0.085761 -0.071578 0.464611 0.521121 -0.683298 21.194452 10.800358 -0.094354 5.170998 0.000000 0.000000 0.649592 -6.149451 -0.346102 4.830959 -53.834896 -4.276876 -32.452065 17.444202 -5.151048 61.260029 0.310292 -0.281522 0.218980 5.516101 -1.442989 -4.766027 54.229424 -4.199185 33.603348 -17.839037 -4.791372 -60.634178 -0.273513 0.658604 -129.322540 25.950874 0.439656 126.494774 5.209460 -0.591782 55.680870 1.726815 5.009548 -129.326355 -25.957468 -0.438752 126.494980 -5.210430 0.585719 55.680714 -1.731540 -5.011014 
0.000000 17.284843 -20.963093 -89.996941 0.254758 -179.732864 -0.337420 -0.085889 -0.071437 -0.395176 -0.339518 -0.591594 19.725430 10.748646 -0.114523 4.460420 0.000000 0.000000 -0.541273 -6.089017 -0.135598 4.830959 -53.834896 -4.276876 -32.452065 17.444202 -5.151048 59.998985 0.000000 0.000000 0.537765 6.085523 -0.135398 -4.835751 53.830849 -4.279071 32.448425 -17.447435 -5.150644 -60.003029 0.000000 0.000000 -132.024918 25.610189 -0.094397 127.783989 5.267752 -0.472272 55.680870 1.726815 5.009548 -132.027908 -25.614918 0.096891 127.784027 -5.266160 0.467588 55.680714 -1.731540 -5.011014 
0.000000 17.168125 -21.060072 -87.147758 0.212091 -179.764374 1.943609 -0.085585 -0.071236 -2.249593 -0.339923 -0.591670 18.249935 10.696203 -0.133416 3.748523 0.000000 0.000000 -5.818683 -6.707661 0.599999 4.420431 -49.767170 -4.111502 -28.594667 15.590378 -6.241398 60.714890 -2.099113 -1.598144 5.732768 6.688853 0.617860 -4.461370 49.924236 -4.135341 28.581736 -15.609499 -6.244381 -60.695576 2.112500 -1.547465 -128.575882 26.469999 0.096049 128.082230 5.350006 -0.454588 54.758713 1.809088 5.726501 -128.578735 -26.477371 -0.097804 128.081604 -5.352398 0.447436 54.761372 -1.812626 -5.729767 
0.000000 17.051407 -21.157051 -84.289757 0.170919 -179.798065 4.229181 -0.085288 -0.071023 -4.106445 -0.340330 -0.591732 16.768406 10.643072 -0.150997 3.035364 0.000000 0.000000 -11.156573 -7.399234 1.283635 4.055363 -45.672630 -3.999695 -24.787420 13.660708 -7.196315 61.492939 -4.183147 -3.230334 10.985179 7.365390 1.321492 -4.126517 45.993980 -4.038372 24.764824 -13.695396 -7.203496 -61.448643 4.211177 -3.128004 -125.081161 27.321825 0.347112 128.380554 5.432169 -0.436472 53.835098 1.879844 6.445083 -125.083725 -27.331604 -0.353352 128.379272 -5.438535 0.426831 53.840584 -1.882201 -6.450125 
0.000000 16.934689 -21.254030 -81.426460 0.131407 -179.833847 6.517488 -0.085000 -0.070798 -5.964766 -0.340739 -0.591782 15.281318 10.589301 -0.167233 2.320991 0.000000 0.000000 -16.532553 -8.156417 1.904580 3.723794 -41.561783 -3.929902 -21.032793 11.669059 -8.013012 62.334423 -6.247477 -4.899113 16.273520 8.108252 1.964922 -3.821072 42.049358 -3.978387 21.000326 -11.718920 -8.025086 -62.263615 6.291565 -4.744193 -121.545105 28.160658 0.659509 128.678940 5.514239 -0.417923 52.910339 1.939023 7.164958 -121.547203 -28.172607 -0.670456 128.677002 -5.524564 0.405773 52.918686 -1.940207 -7.171755 
0.000000 16.817970 -21.351007 -78.561424 0.093710 -179.871567 8.806708 -0.084722 -0.070562 -7.823572 -0.341150 -0.591818 13.789132 10.534940 -0.182092 1.605458 0.000000 0.000000 -21.923685 -8.969892 2.453450 3.417205 -37.445408 -3.894036 -17.332064 9.629825 -8.690339 63.240681 -8.287390 -6.606959 21.575838 8.908604 2.538825 -3.537746 38.099861 -3.948464 17.289715 -9.694410 -8.707906 -63.141823 8.349102 -6.398561 -117.972542 28.981518 1.033292 128.977402 5.596213 -0.398942 51.984776 1.986582 7.885789 -117.973991 -28.995369 -1.049159 128.974808 -5.610483 0.384263 51.995991 -1.986600 -7.894319 
0.000000 16.701252 -21.447987 -75.698242 0.057968 -179.911102 11.095015 -0.084452 -0.070314 -9.681891 -0.341562 -0.591841 12.292323 10.480032 -0.195545 0.888816 0.000000 0.000000 -27.307070 -9.828707 2.922642 3.129325 -33.334267 -3.886289 -13.685519 7.557621 -9.228611 64.212982 -10.298108 -8.356267 26.870249 9.756013 3.035536 -3.271133 34.155018 -3.943585 13.633435 -7.636438 -9.252187 -64.084671 10.379169 -8.093583 -114.368736 29.779472 1.467822 129.275925 5.678087 -0.379530 51.058773 2.022492 8.607242 -114.369354 -29.794945 -1.488796 129.272690 -5.696290 0.362302 51.072872 -2.021353 -8.617485 
0.000000 16.584534 -21.544966 -72.840469 0.024308 -179.952301 13.380586 -0.084194 -0.070057 -11.538745 -0.341974 -0.591850 10.791385 10.424634 -0.207566 0.171123 0.000000 0.000000 -32.660412 -10.720788 3.306653 2.855412 -29.239058 -3.902417 -10.092698 5.466994 -9.629450 65.252579 -12.274831 -10.149315 32.135475 10.638905 3.449373 -3.017110 30.224239 -3.960042 10.031150 -5.559505 -9.659468 -65.093521 12.377105 -9.831642 -110.739410 30.549791 1.961728 129.574509 5.759856 -0.359687 50.132652 2.046737 9.328978 -110.739021 -30.566603 -1.987977 129.570663 -5.781981 0.339889 50.149647 -2.044451 -9.340908 
0.000000 16.467815 -21.641945 -70.001907 -0.007163 -179.994995 15.661617 -0.083946 -0.069790 -13.393161 -0.342385 -0.591846 9.286820 10.368804 -0.218132 -0.547572 0.000000 0.000000 -37.962494 -11.633472 3.602276 2.591786 -25.170176 -3.939270 -6.365179 3.471368 -10.374536 66.360580 -14.212733 -11.988225 37.351284 11.545066 3.776817 -2.772465 26.316751 -3.995067 6.291306 -3.579140 -10.409488 -66.169632 14.338219 -11.614995 -107.090759 31.288012 2.512901 129.873169 5.841519 -0.339414 49.206753 2.059315 10.050648 -107.089203 -31.305862 -2.544564 129.868668 -5.867550 0.317027 49.226658 -2.055891 -10.064251 
0.000000 16.584534 -21.544966 -72.840462 0.024308 -179.952301 13.380586 -0.084194 -0.070057 -11.538745 -0.341974 -0.591850 7.779127 10.312590 -0.227220 -1.267210 0.000000 0.000000 -32.660412 -10.720789 3.306654 2.855411 -29.239050 -3.902416 -9.969935 5.562788 -9.970547 65.252579 -12.274832 -10.149315 32.135475 10.638905 3.449373 -3.017110 30.224239 -3.960042 9.906062 -5.656861 -9.999072 -65.093521 12.377105 -9.831642 -110.739410 30.549791 1.961728 129.574509 5.759856 -0.359687 50.132648 2.046737 9.328975 -110.739021 -30.566603 -1.987977 129.570663 -5.781981 0.339889 50.149647 -2.044451 -9.340908 
0.000000 16.701252 -21.447987 -75.698242 0.057968 -179.911102 11.095016 -0.084452 -0.070314 -9.681889 -0.341562 -0.591841 6.268826 10.256055 -0.234814 -1.987740 0.000000 0.000000 -27.307070 -9.828707 2.922642 3.129325 -33.334267 -3.886289 -13.624112 7.635532 -9.429798 64.212990 -10.298108 -8.356268 26.870251 9.756015 3.035537 -3.271132 34.155014 -3.943584 13.570583 -7.715365 -9.452317 -64.084671 10.379169 -8.093583 -114.368744 29.779474 1.467821 129.275925 5.678087 -0.379530 51.058773 2.022493 8.607243 -114.369354 -29.794945 -1.488796 129.272690 -5.696291 0.362302 51.072868 -2.021353 -8.617482 
0.000000 16.817970 -21.351007 -78.561424 0.093710 -179.871567 8.806707 -0.084722 -0.070562 -7.823571 -0.341150 -0.591818 4.756425 10.199250 -0.240898 -2.709103 0.000000 0.000000 -21.923679 -8.969891 2.453450 3.417205 -37.445408 -3.894036 -17.327887 9.674988 -8.751227 63.240681 -8.287389 -6.606959 21.575836 8.908603 2.538824 -3.537746 38.099857 -3.948464 17.284903 -9.740075 -8.768227 -63.141815 8.349101 -6.398561 -117.972542 28.981514 1.033292 128.977402 5.596213 -0.398942 51.984783 1.986583 7.885791 -117.973991 -28.995365 -1.049158 128.974808 -5.610484 0.384263 51.996002 -1.986601 -7.894321 
